<?xml version="1.0" standalone="no"?>
<!DOCTYPE svg PUBLIC "-//W3C//DTD SVG 20010904//EN"
 "http://www.w3.org/TR/2001/REC-SVG-20010904/DTD/svg10.dtd">
<svg version="1.0" xmlns="http://www.w3.org/2000/svg"
 width="2961.000000pt" height="2961.000000pt" viewBox="0 0 2961.000000 2961.000000"
 preserveAspectRatio="xMidYMid meet">
<metadata>
Created by potrace 1.14, written by Peter Selinger 2001-2017
</metadata>
<g transform="translate(0.000000,2961.000000) scale(0.100000,-0.100000)"
fill="#000000" stroke="none">
<path d="M14648 29605 c-2 -2 -70 -6 -152 -9 -82 -4 -152 -8 -155 -10 -3 -2
-35 -7 -71 -10 -36 -4 -72 -8 -80 -11 -8 -2 -37 -6 -65 -10 -278 -33 -858
-156 -1230 -260 -71 -20 -134 -37 -140 -39 -39 -10 -129 -38 -315 -100 -118
-38 -217 -71 -220 -71 -3 -1 -12 -4 -20 -8 -8 -3 -85 -31 -170 -62 -135 -50
-383 -149 -475 -190 -312 -139 -621 -296 -840 -425 -77 -45 -155 -91 -173
-101 -18 -11 -45 -28 -60 -38 -15 -10 -88 -58 -162 -107 -74 -48 -151 -100
-170 -115 -19 -14 -89 -66 -155 -115 -177 -131 -405 -315 -535 -434 -299 -271
-574 -548 -766 -770 -21 -25 -46 -52 -54 -60 -9 -8 -35 -40 -60 -70 -25 -30
-51 -62 -60 -70 -13 -13 -42 -48 -107 -130 -6 -8 -32 -40 -56 -70 -81 -101
-246 -319 -256 -339 -6 -11 -17 -25 -23 -33 -56 -59 -518 -750 -518 -775 0 -3
-6 -14 -14 -22 -15 -17 -186 -310 -278 -476 -162 -290 -439 -845 -543 -1086
-18 -41 -45 -102 -60 -135 -14 -32 -30 -68 -35 -79 -4 -11 -17 -41 -29 -66
-11 -26 -63 -154 -114 -285 -257 -650 -480 -1382 -608 -1999 -17 -82 -33 -159
-35 -170 -13 -56 -88 -486 -104 -600 -6 -44 -13 -91 -15 -105 -2 -14 -7 -47
-10 -75 -4 -27 -8 -61 -10 -75 -2 -14 -7 -52 -11 -85 -3 -33 -8 -67 -9 -76 -2
-9 -6 -52 -10 -95 -4 -43 -9 -86 -10 -95 -2 -8 -6 -55 -10 -105 -4 -49 -8 -99
-10 -111 -2 -12 -7 -70 -10 -130 -4 -59 -9 -124 -10 -143 -27 -294 -27 -1384
0 -1725 3 -33 7 -98 10 -145 2 -47 7 -112 10 -145 3 -33 7 -87 10 -120 4 -61
11 -137 21 -235 3 -30 7 -75 10 -100 6 -70 12 -123 19 -176 3 -27 8 -62 10
-79 2 -16 11 -86 20 -155 9 -69 18 -134 19 -145 2 -11 6 -40 10 -65 4 -25 10
-58 12 -75 2 -16 6 -41 9 -55 2 -14 7 -45 10 -70 3 -25 8 -52 10 -60 3 -8 7
-31 9 -50 6 -41 53 -301 71 -395 17 -88 98 -458 112 -510 8 -33 17 -71 20 -85
2 -14 20 -86 39 -160 19 -74 37 -142 39 -150 7 -35 88 -325 124 -450 122 -421
275 -875 441 -1310 25 -67 88 -219 111 -267 10 -24 19 -45 19 -48 0 -2 13 -33
29 -67 16 -35 52 -115 81 -178 82 -179 372 -755 400 -795 4 -5 29 -50 56 -100
115 -215 492 -866 661 -1140 92 -149 284 -433 372 -550 128 -169 196 -248 321
-373 319 -320 667 -479 1025 -467 439 15 779 274 968 740 78 192 118 362 132
560 13 184 0 462 -31 650 -3 17 -9 60 -15 97 -8 53 -63 331 -94 473 -15 68
-90 363 -125 490 -23 83 -43 157 -45 165 -4 21 -77 273 -114 398 -17 56 -44
146 -60 200 -16 53 -46 149 -66 212 -19 63 -37 120 -39 125 -18 65 -31 107
-42 140 -7 22 -31 96 -53 165 -72 228 -202 633 -241 750 -113 340 -324 999
-404 1260 -65 215 -178 630 -201 740 -2 8 -20 89 -40 180 -36 165 -89 430
-100 505 -3 22 -7 51 -10 65 -39 253 -56 393 -70 580 -4 47 -8 99 -10 115 -27
236 -27 1109 0 1435 2 25 6 90 10 145 3 55 8 120 10 145 2 25 7 74 10 110 13
145 41 423 50 480 2 14 6 50 10 80 3 30 8 66 10 80 3 14 7 45 10 70 9 75 15
117 52 345 19 121 37 231 39 245 2 14 19 106 39 205 35 176 39 194 50 245 3
14 7 34 9 45 56 272 222 873 306 1110 11 33 26 76 32 95 30 99 184 496 244
628 13 29 24 54 24 56 0 13 210 442 259 529 10 18 33 59 51 92 35 65 90 159
125 215 12 19 35 56 51 82 89 145 387 557 456 629 7 8 38 43 68 79 64 75 215
233 315 330 469 453 1052 836 1640 1076 33 14 69 29 80 34 72 32 332 124 345
123 3 -1 14 4 24 9 66 35 580 165 841 212 189 34 194 35 245 41 25 3 54 8 65
10 11 2 49 7 85 10 36 4 71 8 78 10 6 3 47 7 90 10 42 4 88 8 102 10 143 25
824 25 1013 0 15 -2 62 -6 105 -10 42 -3 84 -8 92 -10 8 -2 38 -6 65 -10 102
-12 131 -17 215 -31 164 -29 377 -75 485 -105 39 -11 86 -24 105 -29 182 -51
512 -164 625 -215 17 -8 59 -26 95 -40 117 -48 402 -191 540 -270 147 -85 395
-247 531 -347 589 -435 1096 -1049 1368 -1658 19 -41 43 -95 54 -120 12 -25
22 -47 22 -50 1 -3 9 -23 19 -45 40 -91 110 -301 132 -395 22 -96 54 -255 58
-295 4 -27 11 -75 16 -105 8 -51 11 -78 26 -212 3 -29 7 -66 9 -83 23 -162 23
-757 1 -885 -2 -14 -7 -61 -11 -104 -4 -43 -8 -86 -10 -95 -1 -9 -6 -41 -10
-71 -8 -65 -13 -97 -25 -170 -5 -30 -11 -72 -14 -93 -7 -47 -54 -281 -66 -327
-5 -19 -11 -46 -14 -60 -18 -100 -160 -608 -200 -715 -13 -36 -15 3 -15 445
-1 514 -7 833 -16 940 -16 184 -26 253 -51 360 -9 36 -17 73 -19 84 -10 45
-58 227 -77 286 -47 155 -80 256 -88 275 -4 11 -23 58 -40 105 -18 47 -41 104
-51 127 -11 24 -19 45 -19 49 0 17 -157 316 -215 410 -252 403 -572 699 -975
900 -112 56 -296 130 -342 139 -10 2 -22 6 -26 9 -16 9 -209 56 -297 71 -152
26 -257 35 -425 34 -134 0 -201 -4 -345 -24 -240 -31 -633 -171 -801 -284 -25
-17 -47 -31 -50 -31 -3 0 -45 -29 -94 -63 -275 -197 -453 -392 -612 -667 -99
-172 -238 -476 -252 -553 -1 -7 -9 -39 -17 -72 -10 -46 -14 -151 -14 -450 0
-214 3 -421 7 -460 26 -242 225 -699 451 -1035 127 -188 385 -530 513 -680 12
-14 86 -104 164 -200 78 -96 149 -184 159 -195 46 -55 316 -402 378 -485 201
-271 351 -535 392 -690 30 -111 32 -125 36 -240 6 -152 -15 -230 -78 -292
-165 -161 -431 -298 -647 -333 -19 -3 -46 -7 -60 -10 -26 -4 -78 -10 -195 -21
-72 -6 -543 -6 -605 0 -19 2 -82 7 -140 11 -58 4 -112 8 -120 10 -8 2 -49 6
-90 10 -41 4 -84 9 -95 11 -10 2 -37 6 -60 9 -22 4 -80 13 -130 21 -49 9 -100
17 -112 19 -12 2 -34 6 -50 9 -36 8 -37 8 -288 50 -115 19 -232 38 -260 41
-27 3 -61 8 -75 10 -62 11 -195 29 -295 40 -27 3 -57 7 -65 10 -8 2 -49 6 -90
10 -41 3 -84 7 -95 9 -11 2 -60 7 -110 11 -49 4 -106 9 -125 11 -52 5 -349 5
-395 -1 -178 -20 -234 -29 -399 -61 -164 -32 -329 -77 -425 -115 -269 -108
-538 -350 -719 -649 -62 -101 -148 -292 -186 -409 -34 -105 -83 -311 -92 -382
-3 -30 -8 -57 -10 -60 -18 -31 -26 -633 -11 -789 17 -178 48 -282 144 -489
279 -606 926 -1080 1633 -1197 14 -2 40 -7 59 -10 44 -7 96 -13 201 -24 85 -8
599 -6 655 3 17 3 64 8 105 11 41 4 84 8 95 10 11 2 47 7 80 11 32 4 67 8 76
10 9 2 34 6 55 10 78 12 100 16 149 25 28 5 61 11 75 14 55 9 184 37 194 42 6
3 2 -2 -8 -10 -11 -9 -24 -16 -29 -16 -5 0 -23 -6 -40 -14 -18 -8 -113 -49
-212 -92 -250 -106 -281 -121 -530 -244 -472 -233 -742 -425 -985 -700 -561
-633 -634 -1268 -210 -1832 75 -99 253 -282 335 -343 22 -16 42 -32 45 -36 12
-13 200 -144 263 -182 238 -146 393 -224 732 -368 158 -67 459 -178 880 -324
116 -40 271 -94 345 -120 623 -217 877 -362 1275 -728 150 -139 143 -132 414
-395 347 -337 378 -368 520 -501 68 -64 139 -129 156 -146 17 -16 67 -61 110
-100 43 -38 83 -75 89 -81 42 -40 342 -285 437 -356 223 -168 475 -314 664
-387 103 -39 275 -87 344 -95 29 -4 56 -8 60 -10 11 -7 183 -19 281 -19 95 -1
287 10 299 17 3 2 28 7 56 11 53 7 218 49 263 67 15 6 36 14 47 18 99 37 292
148 375 215 72 58 233 232 292 315 84 119 185 321 231 465 45 137 56 180 73
275 4 19 8 44 10 55 30 156 39 278 39 495 -1 169 -10 362 -20 400 -2 8 -6 40
-10 71 -3 31 -7 65 -9 75 -2 11 -7 44 -11 74 -4 30 -9 64 -11 75 -2 11 -6 36
-9 55 -3 19 -7 46 -10 60 -3 14 -9 50 -15 80 -5 30 -12 66 -15 80 -3 14 -10
45 -15 70 -50 256 -157 566 -310 905 -64 140 -289 590 -380 760 -40 75 -240
470 -258 510 -123 276 -167 468 -166 725 0 235 25 428 64 510 4 8 31 65 60
125 146 307 376 569 775 883 229 181 690 458 920 554 175 73 317 115 450 133
84 11 298 13 358 3 52 -9 61 -15 121 -79 67 -70 101 -124 111 -175 7 -37 8
-307 1 -331 -2 -10 -7 -38 -10 -63 -24 -187 -158 -620 -474 -1535 -132 -380
-246 -747 -298 -954 -23 -92 -94 -416 -99 -451 -3 -25 -8 -52 -10 -60 -2 -8
-7 -35 -10 -60 -3 -25 -8 -52 -10 -60 -4 -17 -15 -105 -21 -165 -1 -22 -6 -76
-10 -120 -9 -107 -9 -387 0 -505 7 -104 10 -121 32 -255 22 -134 22 -133 49
-235 14 -52 27 -104 30 -115 3 -11 16 -56 29 -100 14 -44 50 -163 81 -265 31
-102 105 -333 165 -515 59 -181 129 -400 154 -485 25 -85 50 -168 56 -185 10
-33 89 -344 96 -379 2 -11 8 -43 14 -71 14 -68 19 -95 25 -125 2 -14 7 -38 9
-55 3 -16 8 -41 11 -55 3 -14 8 -45 11 -70 3 -25 8 -54 10 -65 7 -39 33 -292
41 -400 14 -213 8 -782 -12 -985 -2 -19 -6 -66 -10 -105 -3 -38 -8 -81 -11
-95 -2 -14 -7 -42 -9 -62 -3 -21 -7 -54 -10 -73 -3 -29 -52 -308 -59 -340 -98
-455 -249 -878 -476 -1340 -75 -154 -175 -342 -210 -395 -5 -8 -24 -40 -42
-70 -181 -309 -455 -667 -707 -925 -312 -319 -593 -537 -976 -757 -185 -107
-510 -247 -757 -327 -115 -37 -374 -107 -438 -117 -14 -3 -47 -9 -75 -14 -27
-5 -77 -12 -110 -15 -33 -4 -71 -8 -85 -10 -148 -23 -891 -23 -1120 0 -19 2
-73 6 -120 9 -47 4 -96 8 -110 11 -14 2 -50 7 -80 10 -465 52 -1262 322 -1875
635 -611 313 -946 563 -1520 1135 -387 385 -637 664 -855 954 -14 18 -34 45
-46 59 -12 15 -43 59 -70 97 -26 39 -52 75 -57 80 -37 43 -555 811 -678 1005
-29 47 -57 87 -61 88 -5 2 -8 8 -8 12 0 5 -40 71 -88 147 -49 76 -157 253
-242 393 -270 449 -361 567 -485 630 -57 29 -78 34 -134 34 -83 0 -156 -22
-251 -76 -131 -76 -209 -199 -218 -347 -7 -114 4 -143 175 -450 71 -128 339
-564 512 -834 153 -239 542 -820 561 -837 3 -3 20 -27 39 -55 172 -250 500
-666 761 -965 201 -231 206 -236 465 -495 215 -216 309 -305 455 -431 25 -21
47 -41 50 -44 3 -3 30 -25 60 -50 30 -25 57 -47 60 -50 15 -15 162 -130 275
-215 173 -130 506 -352 630 -421 22 -12 92 -52 155 -88 316 -182 766 -381
1152 -510 247 -82 653 -192 813 -221 114 -20 206 -35 245 -40 25 -3 56 -7 70
-10 14 -2 57 -7 95 -10 39 -4 84 -8 100 -10 26 -4 70 -7 280 -20 334 -22 1016
-22 1145 -1 14 3 57 7 95 10 39 4 80 8 90 10 11 2 42 7 69 10 28 4 82 14 120
22 39 9 82 18 96 20 22 4 63 12 95 20 6 1 48 12 95 24 47 11 93 23 102 25 123
28 426 128 598 197 163 65 459 211 585 288 55 33 109 66 120 73 321 194 768
582 1079 937 205 233 442 547 551 731 6 9 37 61 69 115 165 274 340 622 489
974 53 126 138 338 143 360 2 8 23 71 48 140 118 333 233 770 272 1039 3 20 9
61 14 91 9 54 15 99 26 190 2 25 7 61 9 80 8 69 22 239 31 395 4 83 4 694 0
780 -8 131 -16 260 -21 295 -2 19 -7 64 -11 100 -3 36 -7 72 -9 80 -1 8 -6 40
-10 70 -13 109 -43 277 -71 405 -9 39 -17 77 -19 85 -16 75 -64 261 -96 375
-23 77 -42 145 -43 150 -11 46 -114 372 -126 400 -14 32 -195 590 -234 720
-20 66 -43 140 -51 165 -50 155 -117 461 -132 605 -14 138 -9 395 12 515 32
190 61 342 91 465 19 83 37 157 39 165 41 180 210 686 351 1054 8 22 24 67 35
100 11 34 25 70 30 81 34 76 229 655 268 800 30 113 75 319 85 390 2 22 7 58
11 80 14 97 17 145 20 390 4 301 -6 389 -60 530 -30 78 -125 260 -144 275 -3
3 -19 23 -35 45 -89 122 -279 271 -440 345 -74 34 -213 83 -268 94 -106 21
-140 27 -197 33 -118 13 -396 6 -488 -11 -11 -3 -38 -7 -59 -10 -21 -4 -68
-14 -104 -22 -36 -9 -74 -17 -84 -20 -48 -10 -230 -70 -319 -105 -357 -143
-810 -423 -1131 -701 -27 -24 -59 -50 -70 -58 -12 -8 -30 -24 -42 -35 -11 -11
-61 -56 -109 -100 -240 -216 -549 -543 -666 -705 -136 -188 -301 -563 -358
-815 -38 -168 -46 -270 -45 -550 0 -256 11 -352 60 -557 84 -349 293 -834 665
-1538 186 -352 253 -500 324 -715 32 -95 72 -241 81 -295 3 -14 11 -54 18 -90
8 -36 18 -92 22 -125 4 -33 9 -62 9 -65 1 -3 5 -45 9 -95 4 -49 10 -103 12
-120 5 -41 5 -374 0 -405 -2 -14 -7 -54 -11 -90 -5 -53 -33 -210 -50 -280 -11
-47 -70 -192 -101 -249 -36 -66 -108 -158 -153 -196 -82 -69 -211 -127 -316
-140 -202 -27 -489 45 -749 187 -38 21 -71 38 -74 38 -15 0 -273 182 -362 255
-189 155 -258 222 -845 810 -319 320 -594 592 -610 606 -17 13 -57 47 -90 75
-128 107 -386 287 -530 369 -78 45 -383 198 -455 229 -36 16 -83 37 -105 46
-22 10 -69 30 -105 45 -36 14 -78 32 -95 40 -63 27 -369 140 -575 211 -118 41
-231 81 -250 88 -19 8 -136 51 -260 96 -287 106 -472 184 -635 270 -568 297
-811 569 -728 815 35 104 77 162 212 295 115 114 158 151 301 263 118 92 253
179 445 287 49 28 333 170 339 170 2 0 42 17 88 38 45 22 146 65 223 97 77 31
154 63 170 70 17 7 111 45 210 84 99 39 188 76 197 81 10 6 23 10 29 10 6 0
25 6 42 14 18 8 84 35 147 61 63 25 124 50 135 55 11 5 88 38 170 74 620 266
1234 608 1655 920 41 30 84 62 95 70 130 97 348 289 511 451 279 278 455 499
696 875 236 368 414 795 573 1375 74 272 121 395 195 515 45 71 110 185 167
288 14 26 33 61 43 77 31 54 161 305 255 495 168 336 249 515 344 755 26 66
52 129 56 140 5 11 9 22 9 25 1 3 18 48 38 100 97 247 235 694 314 1015 19 77
37 147 39 155 10 41 86 426 90 458 2 20 7 48 10 62 2 13 7 42 10 65 3 22 8 51
10 65 5 27 10 65 30 230 2 19 7 71 10 115 4 44 8 91 11 105 24 149 24 889 0
1075 -2 17 -7 62 -11 100 -40 427 -157 910 -319 1320 -62 156 -207 451 -289
587 -211 348 -418 610 -727 918 -107 107 -211 209 -230 225 -19 17 -64 55
-100 85 -36 30 -67 57 -70 60 -3 3 -25 21 -50 40 -25 19 -47 37 -50 40 -43 46
-650 460 -675 460 -2 0 -39 21 -82 46 -92 55 -426 226 -533 273 -41 18 -93 41
-115 51 -22 10 -83 35 -135 55 -52 20 -104 41 -115 46 -33 15 -213 79 -325
116 -348 114 -784 220 -1070 259 -25 3 -54 7 -65 9 -87 13 -243 31 -350 41
-39 3 -86 7 -105 10 -197 23 -780 22 -1130 -1 -123 -9 -372 -32 -430 -40 -14
-2 -49 -7 -79 -10 -30 -4 -63 -9 -75 -11 -11 -2 -38 -6 -61 -9 -390 -56 -892
-193 -1315 -360 -913 -359 -1688 -858 -2309 -1485 -108 -109 -165 -170 -315
-340 -118 -133 -310 -389 -454 -607 -88 -131 -262 -417 -262 -429 0 -2 -12
-23 -26 -45 -83 -132 -311 -618 -424 -904 -35 -88 -68 -173 -75 -190 -43 -103
-198 -577 -252 -770 -65 -233 -167 -638 -189 -755 -3 -13 -13 -60 -23 -105
-10 -44 -22 -96 -25 -115 -8 -45 -12 -69 -31 -160 -18 -89 -20 -102 -30 -160
-4 -25 -9 -54 -11 -65 -7 -37 -23 -130 -29 -165 -3 -19 -10 -61 -16 -93 -5
-32 -12 -74 -14 -95 -4 -34 -14 -96 -20 -132 -1 -8 -6 -40 -10 -70 -4 -30 -9
-63 -11 -74 -2 -10 -6 -44 -9 -75 -4 -31 -8 -63 -10 -71 -2 -8 -7 -42 -11 -75
-11 -99 -12 -107 -23 -190 -6 -44 -14 -108 -16 -141 -3 -34 -7 -70 -9 -80 -2
-11 -7 -56 -11 -102 -4 -46 -8 -91 -10 -100 -8 -48 -21 -226 -32 -432 -15
-300 -7 -1426 12 -1665 2 -27 6 -102 10 -165 3 -63 7 -131 10 -150 2 -19 6
-69 10 -110 9 -107 14 -149 19 -184 3 -17 10 -69 16 -116 10 -74 17 -121 45
-280 3 -19 8 -46 10 -60 3 -14 18 -90 35 -170 17 -80 33 -154 36 -165 2 -11
20 -83 39 -160 20 -77 38 -148 40 -158 2 -10 7 -27 10 -37 3 -10 8 -27 10 -37
24 -111 231 -799 357 -1188 10 -33 20 -64 22 -70 7 -29 118 -373 126 -390 5
-11 13 -36 19 -55 5 -19 14 -48 20 -65 7 -16 42 -124 80 -240 38 -115 103
-316 146 -445 70 -214 150 -462 160 -500 3 -8 36 -116 75 -240 210 -670 372
-1305 415 -1630 3 -25 8 -56 10 -70 57 -380 -23 -734 -182 -799 -148 -61 -403
110 -658 440 -70 91 -230 334 -310 471 -5 9 -30 50 -54 90 -53 86 -126 208
-151 252 -138 240 -288 502 -312 546 -17 30 -59 105 -93 165 -34 61 -81 146
-105 190 -24 44 -54 100 -68 125 -46 84 -248 484 -297 590 -226 492 -455 1105
-614 1645 -45 156 -72 251 -76 269 -3 10 -11 42 -19 70 -8 28 -17 62 -20 76
-3 14 -26 106 -51 205 -25 99 -47 194 -50 210 -4 17 -11 50 -16 75 -14 60 -18
80 -25 115 -3 17 -10 50 -15 75 -6 25 -12 54 -15 65 -27 135 -47 233 -51 254
-20 113 -56 323 -68 401 -8 52 -17 104 -19 115 -2 11 -7 42 -10 68 -4 27 -9
57 -11 66 -2 10 -6 42 -10 71 -4 29 -8 60 -10 69 -1 9 -6 43 -10 76 -4 32 -8
67 -10 76 -2 9 -6 40 -10 70 -3 30 -8 65 -10 79 -2 14 -7 52 -10 85 -3 33 -8
71 -10 85 -2 14 -6 54 -10 90 -3 36 -8 81 -10 100 -3 32 -10 128 -20 275 -20
312 -27 1354 -11 1755 13 339 21 481 31 580 2 25 7 74 10 110 3 36 8 85 11
110 12 101 15 126 19 150 2 14 6 41 9 60 3 19 15 89 26 155 27 156 27 156 34
185 3 14 8 36 10 50 16 98 132 637 166 770 10 41 21 86 24 100 7 37 70 280
100 389 66 233 306 904 392 1096 7 17 29 68 48 115 173 428 468 1027 724 1470
183 319 496 807 604 945 5 6 64 85 133 177 148 199 393 502 480 594 11 12 61
65 110 120 146 160 364 375 551 544 54 49 260 220 309 255 22 17 42 33 45 36
12 15 338 244 456 322 365 238 823 483 1234 662 85 37 173 75 195 85 94 41
484 183 645 234 239 76 573 165 710 190 14 3 79 16 145 29 66 14 138 28 160
31 100 16 172 27 194 31 13 2 45 7 70 11 25 3 57 7 71 9 14 2 48 7 75 10 28 3
84 10 125 15 70 9 110 13 250 25 30 3 78 8 105 10 50 5 178 12 370 20 274 12
766 1 963 -21 24 -3 62 -7 86 -9 58 -5 146 -15 176 -20 14 -3 45 -7 70 -10 25
-3 68 -9 95 -15 28 -5 66 -12 85 -15 19 -3 42 -8 50 -10 8 -2 26 -6 40 -9 25
-4 161 -34 190 -41 8 -2 55 -13 105 -25 224 -53 566 -157 785 -240 696 -263
1248 -603 1826 -1125 159 -143 428 -429 604 -640 45 -55 92 -111 104 -125 167
-201 478 -644 671 -955 37 -60 75 -121 85 -135 18 -28 247 -420 300 -515 61
-111 77 -140 112 -205 20 -36 49 -90 65 -120 16 -30 81 -154 143 -275 188
-368 225 -431 307 -532 57 -71 57 -70 116 -115 106 -81 222 -88 352 -24 127
63 250 197 270 297 10 44 7 153 -4 204 -41 178 -188 498 -413 898 -21 38 -38
70 -38 72 0 2 -31 58 -70 126 -38 67 -70 124 -70 125 0 2 -18 33 -40 69 -22
36 -40 67 -40 69 0 13 -285 485 -419 693 -58 90 -234 352 -275 408 -169 233
-360 487 -400 528 -6 7 -27 32 -46 57 -19 25 -37 47 -40 50 -3 3 -34 39 -70
80 -139 161 -231 259 -390 419 -118 119 -282 272 -376 351 -32 27 -128 106
-157 130 -11 8 -24 20 -31 25 -90 80 -431 321 -611 432 -181 111 -499 272
-800 405 -49 22 -118 53 -153 69 -35 16 -69 29 -75 29 -7 0 -17 4 -22 9 -14
12 -292 119 -466 179 -211 73 -553 168 -699 195 -14 3 -36 8 -50 11 -14 3 -36
8 -50 10 -14 2 -36 7 -50 10 -14 3 -41 8 -60 11 -34 4 -141 21 -190 29 -14 2
-56 7 -95 11 -38 4 -77 8 -85 10 -8 2 -53 6 -100 10 -47 3 -101 8 -120 10 -19
2 -87 7 -150 11 -63 3 -144 8 -180 10 -69 5 -1258 13 -1262 9z m2997 -6469
c17 -2 50 -8 75 -11 25 -4 65 -11 90 -17 25 -5 56 -12 69 -14 64 -13 212 -69
292 -110 330 -175 610 -519 832 -1024 61 -138 149 -439 191 -650 51 -258 60
-383 60 -845 1 -445 -12 -745 -49 -1195 -4 -41 -8 -97 -10 -124 -5 -62 -14
-150 -20 -196 -2 -19 -7 -66 -10 -103 -4 -37 -8 -76 -10 -85 -1 -9 -6 -46 -9
-82 -4 -36 -8 -76 -11 -90 -2 -14 -6 -45 -9 -70 -9 -74 -17 -132 -26 -190 -5
-30 -12 -75 -15 -100 -8 -57 -9 -64 -39 -245 -14 -82 -28 -166 -30 -185 -6
-39 -10 -62 -31 -170 -8 -41 -17 -91 -20 -110 -18 -110 -46 -181 -112 -277
-58 -85 -160 -227 -185 -258 -4 -5 -42 -55 -83 -110 -297 -398 -557 -690 -819
-920 -38 -33 -74 -65 -80 -71 -6 -6 -81 -66 -166 -135 -670 -539 -1495 -992
-2285 -1255 -241 -80 -433 -130 -720 -189 -47 -10 -250 -41 -325 -50 -226 -27
-654 -27 -815 0 -16 3 -46 8 -65 11 -71 11 -255 57 -265 65 -5 5 -19 9 -31 9
-13 0 -26 5 -29 10 -3 6 -13 10 -21 10 -7 0 -49 16 -91 36 -242 111 -464 336
-553 557 -61 153 -75 260 -75 572 0 342 13 422 91 578 145 291 361 466 639
517 161 29 516 32 770 5 22 -2 69 -7 105 -10 36 -4 79 -8 95 -10 17 -2 55 -6
85 -10 30 -3 66 -8 80 -10 27 -4 103 -14 160 -21 19 -2 46 -6 60 -9 14 -2 45
-7 70 -10 25 -3 70 -10 100 -15 52 -8 69 -11 165 -25 22 -3 63 -10 90 -15 71
-13 225 -34 330 -46 28 -3 57 -7 65 -9 8 -2 47 -7 85 -11 39 -3 78 -8 87 -9 9
-2 51 -7 92 -10 42 -4 88 -8 103 -10 16 -2 66 -6 113 -10 47 -3 105 -8 130
-10 341 -28 884 -23 1070 10 14 3 41 7 60 10 30 5 132 28 165 39 6 1 30 8 55
15 137 37 322 118 460 199 475 279 737 762 724 1332 -8 356 -125 690 -387
1100 -53 82 -233 340 -272 389 -7 9 -69 86 -136 171 -68 85 -150 187 -182 225
-115 135 -162 190 -207 240 -70 78 -288 340 -366 440 -291 372 -493 747 -548
1017 -8 40 -18 87 -21 103 -11 48 -14 355 -5 410 17 101 21 119 41 178 38 111
147 297 243 410 102 122 321 281 520 377 128 62 207 87 309 97 34 3 63 7 65 8
5 5 265 -3 297 -9z"/>
</g>
</svg>
